<svg width="163" height="62" viewBox="0 0 163 62" fill="none" xmlns="http://www.w3.org/2000/svg">
<path d="M51.0685 39.8178C49.3545 39.8178 47.8205 39.4396 46.4578 38.6747C45.1038 37.9098 44.0326 36.8613 43.2527 35.5206C42.4728 34.1799 42.0786 32.6587 42.0786 30.9656C42.0786 29.2725 42.4728 27.7255 43.2527 26.4105C44.0326 25.0956 45.0952 24.0557 46.4407 23.2908C47.7862 22.5259 49.3288 22.1477 51.0685 22.1477C52.8081 22.1477 54.3165 22.5259 55.6791 23.2736C57.0331 24.0213 58.0958 25.0612 58.8671 26.3933C59.6384 27.7255 60.024 29.2467 60.024 30.9656C60.024 32.6844 59.6384 34.2056 58.8671 35.5378C58.0958 36.8699 57.0331 37.9098 55.6791 38.6747C54.325 39.4396 52.7824 39.8178 51.0685 39.8178ZM51.0685 37.0762C52.174 37.0762 53.1681 36.8269 54.0508 36.3285C54.9335 35.83 55.6191 35.1167 56.1161 34.1885C56.6132 33.2603 56.8617 32.1946 56.8617 30.9742C56.8617 29.7537 56.6132 28.6623 56.1161 27.7598C55.6191 26.8574 54.9249 26.1527 54.0508 25.6542C53.1681 25.1557 52.174 24.9065 51.0685 24.9065C49.9629 24.9065 48.9774 25.1557 48.1033 25.6542C47.2377 26.1527 46.5435 26.8574 46.0208 27.7598C45.498 28.6623 45.2409 29.7366 45.2409 30.9742C45.2409 32.2117 45.498 33.2689 46.0208 34.1885C46.5435 35.1167 47.2377 35.83 48.1033 36.3285C48.9688 36.8269 49.9629 37.0762 51.0685 37.0762Z" fill="white"/>
<path d="M65.3972 39.6201V22.311H68.3967V27.0121L68.1053 25.8347C68.5853 24.6401 69.3823 23.7205 70.5135 23.0931C71.6447 22.4657 73.033 22.1477 74.6785 22.1477V25.1815C74.5499 25.1643 74.4214 25.1472 74.3014 25.1472H73.9586C72.2875 25.1472 70.9591 25.6456 69.9821 26.6512C69.0052 27.6567 68.5167 29.1006 68.5167 30.9913V39.6115H65.3887L65.3972 39.6201Z" fill="white"/>
<path d="M86.5651 38.9067C84.894 38.9067 83.4028 38.5544 82.0831 37.8496C80.7633 37.1449 79.7263 36.1565 78.955 34.8932C78.1837 33.6298 77.7981 32.1687 77.7981 30.5186C77.7981 28.8685 78.1837 27.3816 78.955 26.1269C79.7263 24.8721 80.7719 23.9009 82.0831 23.2048C83.3943 22.5086 84.8854 22.1562 86.5651 22.1562C88.0391 22.1562 89.3846 22.4571 90.6016 23.0501C91.8185 23.6517 92.7869 24.5713 93.5153 25.8089C94.2438 27.0465 94.6037 28.6192 94.6037 30.51C94.6037 32.4008 94.2438 33.9392 93.5153 35.1768C92.7869 36.4144 91.8185 37.3511 90.6016 37.9699C89.3846 38.5887 88.0391 38.8981 86.5651 38.8981V38.9067ZM86.9593 46.1604C85.3739 46.1604 83.8399 45.937 82.3487 45.49C80.8576 45.0431 79.6492 44.4072 78.7151 43.5821L80.2148 41.1671C81.0204 41.8632 82.0059 42.4132 83.18 42.8172C84.3541 43.2211 85.5796 43.4188 86.8565 43.4188C88.8961 43.4188 90.3959 42.9375 91.3471 41.9835C92.2984 41.0296 92.7783 39.5685 92.7783 37.609V33.9478L93.104 30.5186L92.9411 27.0551V22.3195H95.9063V37.2738C95.9063 40.3248 95.1436 42.568 93.6267 44.0032C92.1099 45.4385 89.8817 46.1604 86.9508 46.1604H86.9593ZM86.9251 36.1651C88.0734 36.1651 89.0932 35.9245 89.9845 35.4432C90.8758 34.9619 91.5785 34.3001 92.0841 33.4493C92.5983 32.5984 92.8469 31.6187 92.8469 30.51C92.8469 29.4013 92.5898 28.4216 92.0841 27.5707C91.5785 26.7199 90.8758 26.0667 89.9845 25.594C89.0932 25.1299 88.0734 24.8893 86.9251 24.8893C85.7767 24.8893 84.7483 25.1213 83.8485 25.594C82.9486 26.0581 82.2373 26.7199 81.7317 27.5707C81.2261 28.4216 80.969 29.4013 80.969 30.51C80.969 31.6187 81.2261 32.5984 81.7317 33.4493C82.2459 34.3001 82.9486 34.9619 83.8485 35.4432C84.7483 35.9245 85.7767 36.1651 86.9251 36.1651Z" fill="white"/>
<path d="M5.21076 12.0322C5.42501 12.4619 5.86208 12.7369 6.34199 12.7369C6.82191 12.7369 7.25897 12.4619 7.47322 12.0322L12.5638 1.8392C12.7609 1.44386 12.7351 0.979762 12.5038 0.601608C12.2724 0.223455 11.861 0 11.424 0H1.26861C0.83154 0 0.420183 0.232049 0.188796 0.601608C-0.0425919 0.979762 -0.0597317 1.44386 0.128806 1.8392L5.21076 12.0322ZM9.37574 2.54394L6.35056 8.62018L3.32538 2.54394H9.37574ZM6.35056 37.3685C8.03884 37.3685 9.64998 36.6981 10.8412 35.5035C12.0324 34.3088 12.7009 32.6845 12.7009 31C12.7009 29.3155 12.0324 27.6912 10.8412 26.4965C9.64998 25.3019 8.03027 24.6315 6.35056 24.6315C4.67086 24.6315 3.05115 25.3019 1.85993 26.4965C0.668711 27.6912 0.00025786 29.3155 0.00025786 31C0.00025786 32.6845 0.668711 34.3088 1.85993 35.5035C3.05115 36.6981 4.66229 37.3685 6.35056 37.3685ZM6.35056 27.1755C7.36181 27.1755 8.33021 27.5794 9.05009 28.2928C9.76139 29.0061 10.1642 29.9859 10.1642 31C10.1642 32.0141 9.76139 32.9853 9.05009 33.7072C8.33878 34.4206 7.36181 34.8245 6.35056 34.8245C5.33931 34.8245 4.37091 34.4206 3.65104 33.7072C2.93974 32.9939 2.53695 32.0141 2.53695 31C2.53695 29.9859 2.93974 29.0147 3.65104 28.2928C4.36234 27.5794 5.33931 27.1755 6.35056 27.1755ZM1.26861 62H11.4325C12.1353 62 12.7009 61.4328 12.7009 60.728V50.5351C12.7009 49.8303 12.1353 49.2631 11.4325 49.2631H1.26861C0.565872 49.2631 0.00025786 49.8303 0.00025786 50.5351V60.728C0.00025786 61.4328 0.565872 62 1.26861 62ZM2.53695 51.807H10.1642V59.4561H2.53695V51.807ZM22.8648 54.3596V32.272H15.6661C14.9633 32.272 14.3977 31.7047 14.3977 31C14.3977 30.2953 14.9633 29.728 15.6661 29.728H22.8648V7.64042H15.6661C14.9633 7.64042 14.3977 7.07319 14.3977 6.36845C14.3977 5.66371 14.9633 5.09648 15.6661 5.09648H24.1331C24.8359 5.09648 25.4015 5.66371 25.4015 6.36845V29.728H32.6002C33.3029 29.728 33.8686 30.2953 33.8686 31C33.8686 31.7047 33.3029 32.272 32.6002 32.272H25.4015V55.6316C25.4015 56.3363 24.8359 56.9035 24.1331 56.9035H15.6661C14.9633 56.9035 14.3977 56.3363 14.3977 55.6316C14.3977 54.9268 14.9633 54.3596 15.6661 54.3596H22.8648Z" fill="white"/>
</svg>
